<svg width="23" height="22" viewBox="0 0 23 22" fill="none" xmlns="http://www.w3.org/2000/svg">
<path d="M19.3074 7.21384C19.1933 7.10049 19.0576 7.0106 18.908 6.94937C18.7585 6.88814 18.5981 6.85679 18.4362 6.85714H15.9747V6.25C15.9747 5.12283 15.5208 4.04183 14.713 3.2448C13.9051 2.44777 12.8095 2 11.667 2C10.5245 2 9.42884 2.44777 8.62099 3.2448C7.81314 4.04183 7.3593 5.12283 7.3593 6.25V6.85714H4.89776C4.57134 6.85714 4.25829 6.98508 4.02748 7.2128C3.79666 7.44052 3.66699 7.74938 3.66699 8.07143V16.2679C3.66699 17.7478 4.93622 19 6.43622 19H16.8978C17.6233 19.0002 18.3202 18.7203 18.8393 18.2202C19.1005 17.9743 19.3086 17.6788 19.4508 17.3514C19.5931 17.024 19.6666 16.6715 19.667 16.3153V8.07143C19.6675 7.91212 19.636 7.7543 19.5742 7.6071C19.5125 7.4599 19.4218 7.32623 19.3074 7.21384ZM8.59007 6.25C8.59007 5.44488 8.91424 4.67273 9.49128 4.10343C10.0683 3.53412 10.8509 3.21429 11.667 3.21429C12.483 3.21429 13.2657 3.53412 13.8427 4.10343C14.4197 4.67273 14.7439 5.44488 14.7439 6.25V6.85714H8.59007V6.25ZM15.9747 9.89286C15.9747 11.02 15.5208 12.101 14.713 12.8981C13.9051 13.6951 12.8095 14.1429 11.667 14.1429C10.5245 14.1429 9.42884 13.6951 8.62099 12.8981C7.81314 12.101 7.3593 11.02 7.3593 9.89286V9.28571C7.3593 9.12469 7.42413 8.97026 7.53954 8.8564C7.65495 8.74254 7.81147 8.67857 7.97468 8.67857C8.13789 8.67857 8.29442 8.74254 8.40983 8.8564C8.52523 8.97026 8.59007 9.12469 8.59007 9.28571V9.89286C8.59007 10.698 8.91424 11.4701 9.49128 12.0394C10.0683 12.6087 10.8509 12.9286 11.667 12.9286C12.483 12.9286 13.2657 12.6087 13.8427 12.0394C14.4197 11.4701 14.7439 10.698 14.7439 9.89286V9.28571C14.7439 9.12469 14.8087 8.97026 14.9242 8.8564C15.0396 8.74254 15.1961 8.67857 15.3593 8.67857C15.5225 8.67857 15.679 8.74254 15.7944 8.8564C15.9098 8.97026 15.9747 9.12469 15.9747 9.28571V9.89286Z" fill="#4C4DDC"/>
</svg>
